# xmcd
# 
# Track frame offsets:
#     150
#     11972
#     21740
#     33800
# 
# Disc length: 792
# 
# Revision: 0
# Processed by: cddbd v1.5.2PL0 Copyright (c) Steve Scherf et al.
# Submitted via: fre:ac v1.0.17
# 
DISCID=2d031604
DTITLE=You Am I - Berlin Chair
DYEAR=1993
DGENRE=
TTITLE0=Berlin Chair
TTITLE1=Can't Explain
TTITLE2=Jaimme (Makers Mark Version)
TTITLE3=All I Want To Do Is Rock
EXTD=
EXTT0=
EXTT1=
EXTT2=
EXTT3=
PLAYORDER=
